<?xml version="1.0" encoding="utf-8"?>
<!-- Generator: Adobe Illustrator 14.0.0, SVG Export Plug-In . SVG Version: 6.00 Build 43363)  -->
<!DOCTYPE svg PUBLIC "-//W3C//DTD SVG 1.1//EN" "http://www.w3.org/Graphics/SVG/1.1/DTD/svg11.dtd">
<svg version="1.1" id="レイヤー_1" xmlns="http://www.w3.org/2000/svg" xmlns:xlink="http://www.w3.org/1999/xlink" x="0px"
	 y="0px" width="24.14px" height="18.893px" viewBox="0 0 24.14 18.893" enable-background="new 0 0 24.14 18.893"
	 xml:space="preserve">
<path fill="#F091A1" d="M17.525,0.001c-2.293,0-4.26,1.097-5.456,2.99C10.873,1.098,8.9,0.001,6.6,0.001
	c-1.825,0-3.594,0.691-4.853,1.898C0.585,3.014-0.019,4.437,0,6.014c0.041,3.36,2.116,6.651,6.001,9.517
	c2.883,2.129,5.713,3.27,5.832,3.316c0.076,0.03,0.156,0.046,0.237,0.046s0.163-0.016,0.24-0.047
	c0.119-0.048,2.964-1.211,5.854-3.351c3.897-2.881,5.963-6.162,5.975-9.487C24.145,4.426,23.528,3,22.356,1.886
	C21.098,0.688,19.336,0.001,17.525,0.001"/>
</svg>
