<?xml version="1.0" encoding="utf-8"?>
<!-- Generator: Adobe Illustrator 14.0.0, SVG Export Plug-In . SVG Version: 6.00 Build 43363)  -->
<!DOCTYPE svg PUBLIC "-//W3C//DTD SVG 1.1//EN" "http://www.w3.org/Graphics/SVG/1.1/DTD/svg11.dtd">
<svg version="1.1" id="レイヤー_1" xmlns="http://www.w3.org/2000/svg" xmlns:xlink="http://www.w3.org/1999/xlink" x="0px"
	 y="0px" width="17.166px" height="13.436px" viewBox="0 0 17.166 13.436" enable-background="new 0 0 17.166 13.436"
	 xml:space="preserve">
<path fill="#231815" d="M12.462,0c-1.631,0-3.029,0.78-3.879,2.126C7.731,0.781,6.33,0,4.692,0C3.394,0,2.137,0.492,1.242,1.351
	C0.417,2.144-0.014,3.155,0,4.276c0.028,2.39,1.504,4.729,4.267,6.77c2.05,1.512,4.063,2.323,4.147,2.356
	c0.054,0.021,0.109,0.033,0.169,0.033c0.058,0,0.116-0.012,0.17-0.034c0.085-0.033,2.106-0.86,4.164-2.382
	c2.771-2.049,4.242-4.383,4.248-6.747c0.004-1.125-0.435-2.139-1.269-2.932C15.003,0.489,13.751,0,12.462,0"/>
</svg>
